<?xml version="1.0" encoding="UTF-8" standalone="no"?>
<svg
   height="1024"
   viewBox="0 0 1024 1024"
   width="1024"
   version="1.1"
   id="svg3"
   sodipodi:docname="qbittorrent-tray.svg"
   inkscape:version="1.3.2 (1:1.3.2+202311252150+091e20ef0f)"
   xmlns:inkscape="http://www.inkscape.org/namespaces/inkscape"
   xmlns:sodipodi="http://sodipodi.sourceforge.net/DTD/sodipodi-0.dtd"
   xmlns="http://www.w3.org/2000/svg"
   xmlns:svg="http://www.w3.org/2000/svg">
  <sodipodi:namedview
     id="namedview1"
     pagecolor="#ffffff"
     bordercolor="#000000"
     borderopacity="0.25"
     inkscape:showpageshadow="2"
     inkscape:pageopacity="0.0"
     inkscape:pagecheckerboard="0"
     inkscape:deskcolor="#d1d1d1"
     inkscape:zoom="1.1279297"
     inkscape:cx="512.88657"
     inkscape:cy="512.88657"
     inkscape:window-width="2560"
     inkscape:window-height="1355"
     inkscape:window-x="1920"
     inkscape:window-y="0"
     inkscape:window-maximized="1"
     inkscape:current-layer="svg3" />
  <defs
     id="defs3">
    <linearGradient
       id="swatch7"
       inkscape:swatch="solid">
      <stop
         style="stop-color:#808080;stop-opacity:1;"
         offset="0"
         id="stop8" />
    </linearGradient>
  </defs>
  <linearGradient
     id="a"
     gradientUnits="userSpaceOnUse"
     x1="348.2829"
     x2="782.05951"
     y1="0"
     y2="786.48322">
    <stop
       offset="0"
       stop-color="#72b4f5"
       id="stop1"
       style="stop-color:#00790b;stop-opacity:1;" />
    <stop
       offset="1"
       stop-color="#356ebf"
       id="stop2"
       style="stop-color:#889100;stop-opacity:1;" />
  </linearGradient>
  <g
     fill="none"
     fill-rule="evenodd"
     transform="matrix(0,0.97656268,-0.9765624,0,1011.9995,12.000396)"
     id="g3">
    <path
       d="m 712.898,332.399 q 66.657,0 103.38,45.671 37.03,45.364 37.03,128.684 0,83.32 -37.34,129.61 -37.03,45.98 -103.07,45.98 -33.02,0 -60.484,-12.035 -27.156,-12.344 -45.672,-37.649 h -3.703 l -10.8,43.512 H 555.515 V 196 h 51.227 v 116.65 q 0,39.191 -2.469,70.359 h 2.47 q 35.796,-50.61 106.155,-50.61 z m -7.406,42.894 q -52.46,0 -75.605,30.242 -23.145,29.934 -23.145,101.219 0,71.285 23.762,102.145 23.761,30.55 76.222,30.55 47.215,0 70.36,-34.254 23.144,-34.562 23.144,-99.058 0,-66.04 -23.144,-98.442 -23.145,-32.402 -71.594,-32.402 z"
       fill="#ffffff"
       id="path2"
       style="fill:#000000;fill-opacity:1" />
    <path
       d="m 317.273,639.45 q 51.227,0 74.68,-27.466 23.453,-27.464 24.996,-92.578 v -11.418 q 0,-70.976 -24.07,-102.144 -24.07,-31.168 -76.223,-31.168 -45.055,0 -69.125,35.18 -23.762,34.87 -23.762,98.75 0,63.879 23.454,97.515 23.761,33.328 70.05,33.328 z m -7.715,42.894 q -65.421,0 -102.144,-45.98 -36.723,-45.981 -36.723,-128.376 0,-83.011 37.032,-129.609 37.03,-46.598 103.07,-46.598 69.433,0 106.773,52.461 h 2.778 l 7.406,-46.289 h 40.426 V 828 H 416.949 V 683.27 q 0,-30.86 3.395,-52.461 h -4.012 q -35.488,51.535 -106.774,51.535 z"
       fill="#ffffff"
       id="path3"
       style="fill:#000000;fill-opacity:1" />
  </g>
  <path
     style="fill:#7e7e7e;fill-opacity:1;stroke-width:0.88658"
     d="M 490.72208,1011.0584 C 400.09761,1007.4816 310.13866,978.03969 234.05714,927.05663 205.28962,907.77928 185.1214,891.01853 158.24353,864.05204 119.52797,825.20883 92.630332,788.51144 68.184201,741.18095 34.249091,675.47873 15.734992,605.0831 12.937569,531.11827 10.441977,465.13395 20.377563,401.99399 43.0443,339.79209 62.161165,287.33173 90.032134,238.92197 127.75428,192.65725 141.07193,176.32369 177.60673,139.98272 194.46757,126.29788 259.8183,73.257039 332.64093,38.629975 413.36168,22.214033 c 44.92637,-9.136545 101.24276,-12.06793 146.094,-7.604497 170.26236,16.9439 318.33332,117.140764 396.36011,268.209514 39.78696,77.03203 58.54331,161.47995 55.23141,248.67258 -3.6756,96.77036 -35.44525,190.32539 -91.5288,269.53348 -31.42044,44.37577 -74.11752,87.07285 -118.49329,118.49329 -90.55634,64.11871 -198.47139,95.9539 -310.30303,91.54 z m 52.75151,-30.96787 c 92.90202,-6.75982 178.29325,-38.72219 252.04824,-94.34304 17.32532,-13.06553 31.26273,-25.26564 48.11137,-42.11429 38.28942,-38.28941 66.83561,-78.49655 90.67814,-127.71978 10.03893,-20.72541 15.70382,-34.59421 22.73546,-55.66093 28.38342,-85.03588 31.66182,-177.97576 9.34003,-264.78111 -17.92753,-69.71673 -52.05324,-135.1771 -98.9384,-189.7848 -11.70404,-13.63185 -35.4841,-37.41361 -49.13501,-49.13852 C 797.06776,138.29992 768.05481,117.80819 744.72727,104.57444 730.62711,96.575396 701.43828,82.440672 687.15026,76.692713 610.89874,46.017297 525.93968,35.996678 443.29004,47.930263 366.84179,58.968446 290.58594,91.065712 228.06352,138.52245 c -40.08949,30.42934 -77.33753,69.92093 -105.57721,111.93642 -15.70443,23.36534 -33.572891,56.76118 -44.353121,82.89524 -30.591448,74.16157 -41.527601,156.49188 -31.502613,237.16018 11.307737,90.99022 49.80976,177.7868 109.920994,247.79913 11.71223,13.64139 35.49362,37.42278 49.13501,49.13501 76.53815,65.71417 171.68308,104.93647 273.06667,112.56842 14.27059,1.07418 50.40395,1.11541 64.72034,0.0737 z"
     id="path4" />
</svg>
