<?xml version="1.0" encoding="UTF-8" standalone="no"?>
<svg
   height="1024"
   viewBox="0 0 1024 1024"
   width="1024"
   version="1.1"
   id="svg3"
   sodipodi:docname="qbittorrent-tray.svg"
   inkscape:version="1.3.2 (1:1.3.2+202311252150+091e20ef0f)"
   xmlns:inkscape="http://www.inkscape.org/namespaces/inkscape"
   xmlns:sodipodi="http://sodipodi.sourceforge.net/DTD/sodipodi-0.dtd"
   xmlns="http://www.w3.org/2000/svg"
   xmlns:svg="http://www.w3.org/2000/svg">
  <defs
     id="defs3" />
  <sodipodi:namedview
     id="namedview3"
     pagecolor="#ffffff"
     bordercolor="#000000"
     borderopacity="0.25"
     inkscape:showpageshadow="2"
     inkscape:pageopacity="0.0"
     inkscape:pagecheckerboard="0"
     inkscape:deskcolor="#d1d1d1"
     inkscape:zoom="0.85253906"
     inkscape:cx="513.17297"
     inkscape:cy="512"
     inkscape:window-width="1920"
     inkscape:window-height="1115"
     inkscape:window-x="0"
     inkscape:window-y="0"
     inkscape:window-maximized="1"
     inkscape:current-layer="g3" />
  <linearGradient
     id="a"
     gradientUnits="userSpaceOnUse"
     x1="348.2829"
     x2="782.05951"
     y1="0"
     y2="786.48322">
    <stop
       offset="0"
       stop-color="#72b4f5"
       id="stop1" />
    <stop
       offset="1"
       stop-color="#356ebf"
       id="stop2" />
  </linearGradient>
  <g
     fill="none"
     fill-rule="evenodd"
     transform="matrix(.97656268 0 0 .9765624 11.999908 12.000051)"
     id="g3">
    <circle
       cx="512"
       cy="512"
       fill="url(#a)"
       r="496"
       stroke="#daefff"
       stroke-width="32"
       id="circle2" />
    <path
       style="fill:#000000;stroke-width:23.4325"
       d="m 228.28626,820.31003 h -6.20004 v -6.19998 -6.19977 H 209.68672 197.2869 V 795.51052 783.11095 H 184.88715 172.4874 V 770.7112 758.31145 h -12.39975 -12.39982 v -12.39957 -12.39975 h -6.19972 -6.20003 v -6.19979 -6.19996 h 12.39975 12.39982 v 12.39975 12.39975 h 12.39975 12.39975 v 12.39957 12.39975 h 12.39975 12.39982 v 12.39975 12.39957 h 12.3995 12.40001 v 12.39976 12.39975 z m 22.1425,0 h -3.54272 v -12.39975 -12.39976 h 6.19973 6.19977 V 783.11095 770.7112 h 12.4 12.39976 v -6.19979 -6.19996 h -12.39976 -12.4 v -18.59953 -18.59954 h 12.4 12.39976 v -12.39956 -12.39976 h 12.39956 12.4 V 683.9133 671.51375 h 12.39975 12.39957 v -30.9993 -30.99928 h -6.19978 -6.19979 v 12.39975 12.39975 h -15.78176 -15.78133 l -15.21777,15.21777 -15.21821,15.21777 v 9.58155 9.58154 H 228.28626 197.2869 V 671.51375 659.114 h -6.19996 -6.19979 v 12.39975 12.39955 H 172.4874 160.08765 v 12.39976 12.39976 h -12.39982 -12.39975 v -6.19997 -6.19979 h 6.20003 6.19972 V 683.9133 671.51375 h 12.39982 12.39975 V 659.114 646.71423 h 18.59954 18.59978 v 12.39977 12.39975 h 18.59954 18.59978 v -9.58156 -9.58174 l 15.21771,-15.21776 15.21802,-15.21777 h 15.78151 15.78158 V 609.51517 597.1156 h 18.59954 18.59954 v 43.39885 43.39885 h -12.39976 -12.39957 v 12.39976 12.39976 h -12.39975 -12.4 v 12.39956 12.39975 H 284.0853 271.68554 v 6.19979 6.19996 h 12.39976 12.39956 v 18.59953 18.59954 H 284.0853 271.68554 v 9.74257 9.7425 l -8.85722,8.85703 -8.85678,8.85698 z m 523.44628,0 h -6.19978 V 801.71049 783.11095 H 755.27551 742.87569 V 770.7112 758.31145 h -12.3995 -12.39975 V 745.91188 733.51213 H 693.27711 668.47755 V 714.9126 696.31306 h 12.39981 12.39975 V 659.114 621.91492 h 18.59954 18.59954 v 12.39975 12.39956 h 12.3995 12.39982 v 12.39977 12.39975 h 24.79924 24.79983 v 12.39955 12.39976 h 6.19972 6.19979 V 683.9133 671.51375 h 30.99927 30.99942 v 12.39955 12.39976 h 6.19974 6.19975 v 28.18109 28.18108 l -15.21775,15.21777 -15.21783,15.21795 h -15.78153 -15.78132 v 18.59954 18.59954 h -12.39975 -12.39951 v -6.19998 -6.19977 h 6.19972 6.19979 V 789.31074 770.7112 h 15.78158 15.78125 l 15.21783,-15.21777 15.21803,-15.21776 v -15.78152 -15.78133 h -6.20003 -6.19981 V 696.31306 683.9133 h -18.59958 -18.59952 v 12.39976 12.39976 H 811.0743 792.47476 V 696.31306 683.9133 h -24.7995 -24.79957 V 671.51375 659.114 h -12.3995 -12.39975 v -12.39977 -12.39956 h -6.19979 -6.20003 v 37.19908 37.19907 h -12.39951 -12.39975 v 6.19978 6.19978 h 24.79926 24.79957 v 12.39975 12.39975 h 12.3995 12.39982 v 12.39957 12.39975 h 12.39975 12.39949 v 24.79932 24.79951 z M 519.68059,807.91028 H 457.68176 V 795.51052 783.11095 H 445.28195 432.88244 V 770.7112 758.31145 h -12.4 -12.39974 V 745.91188 733.51213 H 395.68326 383.28325 V 708.71282 683.9133 H 370.88344 358.48393 V 634.31467 584.71585 H 346.08394 333.68418 V 572.3161 559.91653 H 321.28461 308.88486 V 541.317 522.71746 h -12.4 -12.39956 V 454.5191 386.32074 h 12.39956 12.4 v -30.99909 -30.99929 h -6.20003 -6.19997 v 24.79932 24.7995 h -18.59953 -18.59979 v -12.39975 -12.39975 h -43.3991 -43.39904 v -12.39957 -12.39975 h -12.39975 -12.39982 v -24.79932 -24.79932 h 24.79957 24.7995 v -6.19996 -6.19979 H 184.88715 172.4874 v -30.99928 -30.9991 h 12.39975 12.39975 v -12.39976 -12.39975 h 30.99936 30.99928 v 12.39975 12.39976 h 6.20003 6.19997 v 24.79931 24.79932 h 12.39976 12.39956 v 18.59954 18.59953 h 12.4 12.39975 v 12.39975 12.39976 h 6.19979 6.19978 v -12.39976 -12.39975 h 12.39976 12.39999 v -6.19978 -6.19979 h 12.39951 12.39981 v -12.39975 -12.39975 h 12.40001 12.39944 V 237.52465 225.1249 h 24.79974 24.79932 v -12.39975 -12.39956 h 61.99883 61.99882 v 12.39956 12.39975 h 24.79956 24.79933 v 12.39975 12.39957 h 12.39999 12.39975 v 12.39975 12.39975 h 12.39951 12.39981 v 6.19979 6.19978 h 12.39975 12.39951 v 12.39975 12.39976 h 12.39982 12.39975 v 37.19888 37.19906 h 12.3995 12.39982 v 68.19836 68.19836 h -12.39982 -12.3995 v 18.59954 18.59953 h -12.39975 -12.39982 v 12.39957 12.39975 h -12.39951 -12.39975 v 49.59882 49.59863 h -12.39981 -12.39951 v 24.79952 24.79931 H 643.67829 631.2783 v 12.39975 12.39957 h -12.39958 -12.39975 v 12.39975 12.39975 h -12.39999 -12.39957 v 12.39957 12.39976 z m 0,-12.39976 h 49.59907 V 783.11095 770.7112 h 12.39975 12.39957 v -12.39975 -12.39957 h 12.39999 12.39975 v -12.39975 -12.39975 h 12.39958 12.39999 V 702.51285 683.9133 h -30.99953 -30.99935 v 12.39976 12.39976 H 569.27966 556.87991 V 696.31306 683.9133 h -18.59979 -18.59953 v 12.39976 12.39976 H 501.0808 482.48127 V 696.31306 683.9133 h -43.39904 -43.39897 v 18.59955 18.59953 h 12.39944 12.39974 v 12.39975 12.39975 h 12.4 12.39951 v 12.39957 12.39975 h 12.39981 12.39975 v 12.39975 12.39957 z M 501.0808,696.31306 h 6.20003 V 683.9133 671.51375 h 68.19861 68.19885 v -18.59954 -18.59954 h -6.20003 -6.19996 v 12.39956 12.39977 h -37.19932 -37.19907 v -12.39977 -12.39956 h -6.20003 -6.19972 v 12.39956 12.39977 h -30.99961 -30.99928 v -12.39977 -12.39956 h -6.19997 -6.19979 V 646.71423 659.114 H 439.08223 408.0827 v -12.39977 -12.39956 h -6.19973 -6.19971 v 18.59954 18.59954 h 49.59869 49.59907 v 12.39955 12.39976 z M 377.08347,671.51375 h 6.19978 v -24.79952 -24.79931 h 18.59972 18.59947 v 12.39975 12.39956 h 18.59979 18.59953 v -12.39956 -12.39975 h 18.59954 18.59972 v 12.39975 12.39956 h 18.59953 18.59979 v -12.39956 -12.39975 h 18.59954 18.59978 v 12.39975 12.39956 h 24.79932 24.79974 v -12.39956 -12.39975 h 18.59954 18.59978 v 24.79931 24.79952 h 6.19979 6.19972 V 621.91492 572.3161 h 12.39981 12.39975 v -12.39957 -12.39975 h 12.39951 12.39982 v -18.59953 -18.59953 h 12.39975 12.3995 V 454.5191 398.7205 h -12.3995 -12.39975 V 361.52143 324.32236 H 705.67662 693.27711 V 311.9228 299.52304 h -12.39975 -12.39981 v -6.19978 -6.19997 H 656.07804 643.67829 V 274.72372 262.32397 H 631.2783 618.87872 V 249.92422 237.52465 H 594.07898 569.27966 V 225.1249 212.72515 h -49.59907 -49.59908 v 12.39975 12.39975 h -24.79956 -24.79951 v 12.39957 12.39975 H 408.0827 395.68326 v 12.39975 12.39957 h -12.40001 -12.39981 v 6.19997 6.19978 h -12.39951 -12.39999 v 12.39976 12.39956 h -12.39976 -12.39957 v 37.19907 37.19907 h -12.39975 -12.4 v 55.7986 55.79862 h 12.4 12.39975 v 18.59953 18.59953 h 12.39957 12.39976 v 12.39975 12.39957 h 12.39999 12.39951 v 49.59882 49.59883 z M 501.0808,597.1156 h -18.59953 v -30.99929 -30.99929 h 12.39975 12.39981 v -12.39956 -12.39974 h 18.59979 18.59954 v 17.23085 17.23079 l 12.39975,8.9372 12.39975,8.93739 v 8.37382 8.37382 l -8.85704,8.85704 -8.85697,8.85697 h -9.74275 -9.74256 V 584.71585 572.3161 h -6.19972 -6.20003 v 12.39975 12.39975 z m 0,-12.39975 h 6.20003 V 572.3161 559.91653 h 12.39976 12.39975 V 541.317 522.71746 h -6.19972 -6.20003 v 12.39956 12.39976 h -12.39976 -12.39981 v 18.59953 18.59954 z m -74.39857,-37.19907 h -43.39898 v -12.39976 -12.39956 h -12.39981 -12.39951 v -55.79861 -55.7986 h 30.99904 30.99947 v 6.19978 6.19979 h 24.79951 24.79956 v 6.19996 6.19979 h 12.39976 12.39975 v 43.39885 43.39904 h -12.39975 -12.39976 v 12.39956 12.39976 z m 0,-12.39976 h 30.99953 v -12.39956 -12.39974 h 12.39975 12.39976 v -30.9993 -30.9991 h -12.39976 -12.39975 v -6.19997 -6.19978 H 432.88244 408.0827 v -6.19979 -6.19996 h -18.59973 -18.59953 v 43.39903 43.39887 h 12.39981 12.40001 v 12.39974 12.39956 z m 185.99653,12.39976 h -43.3991 v -12.39976 -12.39956 h -6.19979 -6.19996 v -40.74185 -40.74179 l 8.85697,-8.85703 8.85704,-8.85697 h 22.14231 22.14249 v -6.19979 -6.19978 h 30.99929 30.99935 v 55.7986 55.79861 h -12.39981 -12.39951 v 12.39956 12.39976 z m 0,-12.39976 h 30.99953 v -12.39956 -12.39974 h 12.39975 12.39951 V 466.91885 423.51982 H 649.87801 631.2783 v 6.19996 6.19979 h -22.14232 -22.14256 l -8.85673,8.85697 -8.85703,8.85679 v 28.34228 28.34211 h 6.19978 6.19997 v 12.39974 12.39956 z M 277.88533,361.52143 h 6.19997 V 336.72211 311.9228 h 12.39956 12.4 v -6.19998 -6.19978 h -12.4 -12.39956 v -18.59953 -18.59954 h -12.39976 -12.4 v -24.79932 -24.7995 h -6.19977 -6.19973 v -12.39956 -12.39976 h -18.59978 -18.59954 v 12.39976 12.39956 H 197.2869 184.88715 v 18.59954 18.59953 h 12.39975 12.39982 v 18.59954 18.59953 h -24.79957 -24.7995 v 12.39975 12.39976 h 12.39975 12.39975 v 12.39956 12.39975 h 43.39911 43.39928 v 12.39957 12.39975 z m 508.38946,37.19907 h -18.59953 v -12.39976 -12.39956 h -12.39975 -12.39982 v -43.39885 -43.39904 h 12.39982 12.39975 v -18.59953 -18.59954 h 12.39949 12.40001 V 225.1249 200.32559 h 30.99935 30.99906 v 12.39956 12.39975 h 12.39977 12.39984 v 22.14231 22.14225 l 8.85677,8.85704 8.85698,8.85679 h 9.7426 9.74275 v 18.59953 18.59954 h -12.39984 -12.39977 v 12.39975 12.39957 H 860.6732 829.67384 v 12.39975 12.39975 h -12.39975 -12.39951 v 12.39956 12.39976 z m 0,-12.39976 h 6.19997 v -12.39956 -12.39975 h 12.39982 12.39951 v -12.39975 -12.39957 h 30.99927 30.99942 V 324.32236 311.9228 h 12.39949 12.39977 v -6.19998 -6.19978 h -9.74254 -9.74274 l -8.85677,-8.85698 -8.85705,-8.85678 V 259.66696 237.52465 H 854.47317 842.07361 V 225.1249 212.72515 h -18.5995 -18.59953 v 24.7995 24.79932 h -12.39982 -12.40001 v 18.59954 18.59953 h -12.39949 -12.39975 v 30.99929 30.9991 h 12.39975 12.39949 v 12.39975 12.39956 z"
       id="path13572"
       transform="matrix(1.0239998,0,0,1.0240001,-12.287904,-12.288053)" />
    <path
       style="fill:#00b300;fill-opacity:1;stroke-width:23.4325"
       d="M 240.49257,828.30262 H 228.09288 V 815.90311 803.5033 H 215.69319 203.2935 v -12.39976 -12.3995 H 190.89381 178.49412 V 766.30423 753.90448 H 166.09443 153.69474 V 741.50497 729.10515 H 141.29505 128.89536 V 716.70541 704.3059 h 12.39969 12.39969 v -12.39982 -12.39975 h 12.39969 12.39969 v -12.3995 -12.39981 h 12.39969 12.39969 v 12.39981 12.3995 h 24.79938 24.79938 v -9.58154 -9.58156 l 15.21777,-15.21776 15.21784,-15.21771 h 15.78145 15.7814 v -12.39981 -12.39976 h 12.39968 12.3997 v 37.19907 37.19907 h -12.3997 -12.39968 v 12.39975 12.39982 h -12.3997 -12.39969 v 12.39951 12.39974 h -12.39969 -12.39969 v 12.39982 12.39951 h 12.39969 12.39969 v 12.39975 12.39981 h -12.39969 -12.39969 v 12.3995 12.39976 h -6.19984 -6.19985 v 12.39981 12.39951 z m 549.12909,0 H 773.67912 V 803.5033 778.70404 H 761.27956 748.8798 v -12.39981 -12.39975 h -12.39975 -12.39956 v -12.39951 -12.39982 h -24.7995 -24.79932 V 716.70541 704.3059 h 12.39975 12.39957 v -37.19907 -37.19907 h 12.39975 12.39975 v 12.3995 12.39976 h 12.39956 12.39975 v 12.39981 12.3995 h 24.79932 24.79951 v 12.39975 12.39982 h 12.39957 12.39975 v -12.39982 -12.39975 h 24.79932 24.79954 v 12.39975 12.39982 h 6.19982 6.19974 v 21.98131 21.98105 l -15.21775,15.21802 -15.21783,15.21776 h -15.78125 -15.78159 v 15.94228 15.94253 l -8.85697,8.85698 -8.8568,8.85679 z M 519.4856,803.5033 H 463.687 v -12.39976 -12.3995 h -12.39976 -12.39975 v -12.39981 -12.39975 h -12.39957 -12.39975 v -12.39951 -12.39982 h -12.39962 -12.3997 V 704.3059 679.50633 h -12.39968 -12.39969 v -49.59857 -49.59889 h -12.3997 -12.39968 v -12.39975 -12.3995 h -12.3997 -12.39968 v -18.59954 -18.59954 h -12.3997 -12.39969 v -61.99863 -61.99839 h 12.39969 12.3997 v -37.19906 -37.19907 h -12.3997 -12.39969 v 24.79956 24.79932 H 277.69164 265.29195 V 357.11446 344.71495 H 221.89304 178.49412 V 332.3152 319.91539 h -12.39969 -12.39969 v -18.59955 -18.59953 h 24.79938 24.79938 v -12.3995 -12.39974 h -12.39969 -12.39969 v -24.79933 -24.79956 h 12.39969 12.39969 v -12.39951 -12.39982 h 24.79938 24.79938 v 12.39982 12.39951 h 6.19985 6.19984 v 24.79956 24.79933 h 12.39969 12.39969 v 18.59952 18.59954 h 12.39969 12.3997 v 12.39975 12.39951 h 12.39968 12.3997 v -12.39951 -12.39975 h 12.39968 12.3997 v -6.19978 -6.20004 h 12.39969 12.39968 v -12.3995 -12.39974 h 12.3997 12.39962 v -12.39982 -12.39951 h 24.79932 24.79951 v -12.39975 -12.39981 h 55.7986 55.79861 v 12.39981 12.39975 h 24.79931 24.79932 v 12.39951 12.39982 h 12.39976 12.39975 v 12.39974 12.3995 h 12.39957 12.39975 v 6.20004 6.19978 h 12.39975 12.39957 v 12.39975 12.39951 h 12.39975 12.39975 v 37.19907 37.19906 h 12.39956 12.39975 v 61.99839 61.99863 h -12.39975 -12.39956 v 18.59954 18.59954 h -12.39975 -12.39975 v 12.3995 12.39975 h -12.39957 -12.39975 v 49.59889 49.59857 h -12.39975 -12.39957 v 24.79957 24.79925 H 637.2826 624.88284 v 12.39982 12.39951 h -12.39956 -12.39976 v 12.39975 12.39981 h -12.39975 -12.39956 v 12.3995 12.39976 z m -18.59954,-99.1974 h 12.39958 v -12.39982 -12.39975 h 24.79949 24.79933 v 12.39975 12.39982 h 6.19978 6.19997 v -12.39982 -12.39975 h 37.19907 37.19907 V 654.70702 629.90776 H 637.2826 624.88284 v 12.3995 12.39976 h -30.99909 -30.99929 v -12.39976 -12.3995 h -12.39975 -12.39958 v 12.3995 12.39976 h -24.79949 -24.79933 v -12.39976 -12.3995 H 476.08656 463.687 v 12.3995 12.39976 h -24.79951 -24.79932 v -12.39976 -12.3995 h -12.39962 -12.3997 v 24.79926 24.79931 h 49.59864 49.59882 v 12.39975 12.39982 z m 0,-111.59721 h 12.39958 v -12.39982 -12.39975 h 12.39975 12.39974 v 12.39975 12.39982 h 3.54278 3.54279 l 9.53467,-9.53468 9.53468,-9.53468 -13.07745,-11.34206 -13.07747,-11.34199 v -16.3224 -16.32234 h -12.39974 -12.39975 v 12.39951 12.39975 h -12.39958 -12.39975 v 24.79932 24.79957 z M 426.48792,543.1098 H 463.687 v -12.39975 -12.39951 h 12.39956 12.39975 V 481.11148 443.91241 H 476.08656 463.687 v -6.20003 -6.19979 h -24.79951 -24.79932 v -6.19971 -6.20004 h -24.79932 -24.79937 v 49.59883 49.59887 h 12.39969 12.39968 v 12.39951 12.39975 z m 185.99536,0 h 37.19907 v -12.39975 -12.39951 h 12.39957 12.39975 v -49.59887 -49.59883 h -24.79932 -24.79951 v 6.20004 6.19971 h -22.14231 -22.14225 l -8.85679,8.85704 -8.85703,8.85679 v 34.54206 34.54206 h 6.19978 6.19997 v 12.39951 12.39975 z M 786.07888,394.31352 H 773.67912 V 381.91378 369.51427 H 761.27956 748.8798 V 332.3152 295.11613 h 12.39976 12.39956 v -18.59954 -18.59952 h 12.39976 12.39975 v -24.79933 -24.79956 h 24.79932 24.79932 v 12.39981 12.39975 h 12.39977 12.39977 v 22.14225 22.14232 l 8.85684,8.85678 8.85698,8.85704 h 9.74253 9.74275 v 12.39975 12.39951 h -12.39977 -12.39977 v 12.39981 12.39975 h -30.99914 -30.99928 v 12.39951 12.39981 H 810.8782 798.47863 v 12.39951 12.39974 z"
       id="path13571"
       transform="matrix(1.0239998,0,0,1.0240001,-12.287904,-12.288053)" />
  </g>
</svg>
